# xmcd
#
# Track frame offsets:
# 183
# 18505
# 32685
# 50400
# 61268
# 78195
# 96298
# 111785
# 130125
# 146813
#
# Disc length: 2127 seconds
#
# Revision: 0
# Processed by: cddbd v1.4PL0 Copyright (c) Steve Scherf et al.
# Submitted via: Axialis_AX_CDPlayer 2.6
#
DISCID=81084d0a
DTITLE=michele torr - argentina
DYEAR=1900
DGENRE=
TTITLE0=argentina
TTITLE1=je pense a vous
TTITLE2=Je suis love 
TTITLE3=c'est dur d'avoir 16 ans
TTITLE4=et toute la ville en parle
TTITLE5=je tavais supporte
TTITLE6=partir un jour
TTITLE7=I remember you
TTITLE8=le temps qu'il faudra
TTITLE9=les mots pour dire
EXTD=
EXTT0=
EXTT1=
EXTT2=
EXTT3=
EXTT4=
EXTT5=
EXTT6=
EXTT7=
EXTT8=
EXTT9=
PLAYORDER=
